<?xml version="1.0" encoding="utf-8"?>
<!-- Generator: Adobe Illustrator 25.4.1, SVG Export Plug-In . SVG Version: 6.00 Build 0)  -->
<svg version="1.1" id="Layer_1" xmlns="http://www.w3.org/2000/svg" xmlns:xlink="http://www.w3.org/1999/xlink" x="0px" y="0px"
	 viewBox="0 0 1920 1080" style="" xml:space="preserve">
<style type="text/css">
	.st0{fill:#0A0D85;}
	.st1{fill:#0A0C84;}
	.st2{fill:#FFFFFF;}
</style>
<path class="st0" d="M0,498.3V378.5h273.9v43.4H50.6v138.5C12.6,556.1,0,537.4,0,498.3z M0,666.8c0-32.5,12.6-56.6,50.6-62.6v152.3
	H280v43.3H0V666.8z M50.6,560.3c5.4,0.6,12,0.6,18.7,0.6h179.6V603H69.2c-6.6,0-13.2,0.6-18.7,1.2L50.6,560.3L50.6,560.3z"/>
<path class="st0" d="M359.8,378.5H411v421.5h-51.2V378.5z"/>
<path class="st0" d="M494.3,378.5h49.4v238.4h25.9c5.4,0,10.8,0,15.7-0.6c-0.6,7.8-1.2,15-1.2,22.3c0,9,0.6,17.5,2.4,25.3
	c-6-0.6-11.4-0.6-16.9-0.6h-25.9v136.7h-49.4V378.5z M627.4,537.4l35.5-38.5h69.8l-90.9,90.3c-21.1,21.1-37.9,25.9-56.6,27.1
	C588.8,592.8,599.7,568.1,627.4,537.4z M629.2,738.5c-24.7-28.3-37.3-50-42.8-74.7c21.7,2.4,45.8,9,65,30.1l99.3,106h-68.6
	L629.2,738.5z"/>
<path class="st0" d="M789.1,498.9h51.2v75.9h0.6c12.7-42.8,40.3-83.1,84.9-83.1c3,0,4.8,0,9,0.6v53c-48.2-1.8-83.1,13.8-94.5,34.9
	v219.8h-51.2V498.9z"/>
<path class="st0" d="M1335.5,535h-42.8v-36.1h42.8c0.6-39.7,21.1-62.6,54.8-72.2c-2.4,12.6-3.6,27.1-3.6,44v28.3h80.7V535h-80.7
	v264.9h-51.2L1335.5,535L1335.5,535z M1469.1,371.2v50c-15.1-1.2-17.5-1.2-26.5-1.2c-19.9,0-37.3,1.8-52.4,6.6
	C1398.7,390.5,1420.4,371.2,1469.1,371.2z"/>
<path class="st0" d="M1245,498.9h-52.9v67l-22.1-0.1c-4.2-25-27.4-71.9-82-71.9c-83.3,0-135.5,65.6-135.5,148.6v8.7
	c0,83.6,52.2,149.2,135.5,149.2c54.6,0,77.2-47.1,82-72.1h22.1v71.7h52.9V498.9z M1097.7,760.3c-58.8,0-95.9-42.4-95.9-109.1v-8.7
	c0-66.8,37.2-108,95.9-108c57.4,0,91.7,37.8,94.5,99.6v25.5C1189.3,721.4,1155.1,760.3,1097.7,760.3z"/>
<path class="st0" d="M1549.8,688.3V535h-45.9v-36.2h45.9v-83.9h53.1v83.9h69.4V535h-69.4v212.4c0,4.8,0,9.7,0.6,13.9
	C1561.2,752.8,1549.8,729.3,1549.8,688.3z M1603.5,761.3c12.7,2.4,28.4,3.6,47.1,3.6c11.5,0,13.9,0,25.9-0.6V806
	c-7.2,1.2-13.9,1.8-21.7,1.8C1618.6,807.8,1605.9,791.5,1603.5,761.3z"/>
<path class="st0" d="M934.8,492.3"/>
<path class="st0" d="M1776.2,489.2c11.4-35.5,50.4-63,58.8-100c7.9,35.1,43.5,61.7,56.9,94.5c0.2,0.5,0.5,1.1,0.7,1.7
	c0,0.1,0.1,0.2,0.1,0.3c0.5,1.2,0.9,2.5,1.3,3.7c16-15.4,25.9-37,25.9-61c0-69.2-71.3-97.6-84.8-157c-13.4,59.4-84.8,87.8-84.8,157
	C1750.4,452.3,1760.3,473.8,1776.2,489.2C1776.2,489.2,1776.2,489.2,1776.2,489.2C1776.2,489.2,1776.2,489.2,1776.2,489.2z"/>
<path class="st0" d="M1835.2,513.1c-22.9,0-43.7-9.1-59-23.9c-2,6.2-3.2,12.9-3.2,20.5c0,34.3,27.8,62.1,62.1,62.1
	c34.3,0,62.1-27.8,62.1-62.1c0-7.5-1.2-14.2-3.1-20.3C1878.8,504.1,1858.1,513.1,1835.2,513.1z"/>
<path class="st1" d="M1892,483.6c0.2,0.6,0.5,1.1,0.7,1.7C1892.4,484.7,1892.2,484.2,1892,483.6z"/>
<path class="st2" d="M1892.8,485.6c0-0.1-0.1-0.2-0.1-0.3C1892.7,485.4,1892.7,485.5,1892.8,485.6z"/>
</svg>
